<svg xmlns="http://www.w3.org/2000/svg" width="42" height="42" viewBox="0 0 42 42">
  <g id="Group_60" data-name="Group 60" transform="translate(-314 -752)">
    <path id="Ellipse_4" data-name="Ellipse 4" d="M21,1a20.006,20.006,0,0,0-7.785,38.429A20.005,20.005,0,0,0,28.785,2.571,19.874,19.874,0,0,0,21,1m0-1A21,21,0,1,1,0,21,21,21,0,0,1,21,0Z" transform="translate(314 752)" fill="#f1f1f1"/>
    <path id="arrow-up-right-svgrepo-com_1_" data-name="arrow-up-right-svgrepo-com (1)" d="M20.595,20.235a1,1,0,0,1-1-1V7a1,1,0,0,1,2,0V19.235A1,1,0,0,1,20.595,20.235Z" transform="translate(321.203 759.203)" fill="#f1f1f1"/>
  </g>
</svg>
