<svg xmlns="http://www.w3.org/2000/svg" xmlns:xlink="http://www.w3.org/1999/xlink" width="20" height="20" viewBox="0 0 20 20">
  <defs>
    <clipPath id="clip-path">
      <rect id="Rectangle_23" data-name="Rectangle 23" width="20" height="20" transform="translate(1374 43)" fill="#fff"/>
    </clipPath>
  </defs>
  <g id="Mask_Group_7" data-name="Mask Group 7" transform="translate(-1374 -43)" clip-path="url(#clip-path)">
    <g id="SVGRepo_iconCarrier" transform="translate(1371.216 40.217)">
      <path id="Path_11" data-name="Path 11" d="M20.579,17.475a7.529,7.529,0,0,0-2.157-1.508,5,5,0,1,0-6.287,0,7.5,7.5,0,0,0-4.344,6.6.2.2,0,0,0,.2.2h1.4a.2.2,0,0,0,.2-.192,5.7,5.7,0,0,1,11.385,0,.2.2,0,0,0,.2.192h1.4a.2.2,0,0,0,.2-.2A7.425,7.425,0,0,0,20.579,17.475Zm-5.3-2.195a3.2,3.2,0,0,1-3.2-3.228,3.2,3.2,0,1,1,3.2,3.228ZM9.026,12.744a6.3,6.3,0,0,1,.072-1.82.2.2,0,0,0-.112-.22,3.2,3.2,0,0,1,1.346-6.112,3.192,3.192,0,0,1,2.147.859,3.268,3.268,0,0,1,.509.609.2.2,0,0,0,.232.08A6.2,6.2,0,0,1,14.6,5.83a.2.2,0,0,0,.157-.29,5,5,0,1,0-7.61,6.13,7.506,7.506,0,0,0-2.16,1.508A7.426,7.426,0,0,0,2.8,18.272a.2.2,0,0,0,.2.2H4.4a.2.2,0,0,0,.2-.192,5.7,5.7,0,0,1,4.28-5.323.2.2,0,0,0,.15-.217Z" fill="#d3d3d3"/>
      <path id="Path_11_-_Outline" data-name="Path 11 - Outline" d="M22.571,22.783h-1.4a.212.212,0,0,1-.212-.2,5.683,5.683,0,0,0-5.68-5.488h-.016A5.684,5.684,0,0,0,9.6,22.579a.212.212,0,0,1-.212.2H7.99a.212.212,0,0,1-.212-.218,7.51,7.51,0,0,1,4.334-6.6,5.009,5.009,0,1,1,6.334,0,7.523,7.523,0,0,1,4.339,6.6.212.212,0,0,1-.212.218Zm-7.306-5.718h.016a5.708,5.708,0,0,1,5.705,5.513.187.187,0,0,0,.187.18h1.4a.187.187,0,0,0,.187-.192,7.5,7.5,0,0,0-4.342-6.588L18.4,15.97l.016-.013a4.984,4.984,0,1,0-6.271,0l.016.013-.018.008A7.485,7.485,0,0,0,7.8,22.566a.187.187,0,0,0,.187.192h1.4a.187.187,0,0,0,.187-.18,5.708,5.708,0,0,1,5.689-5.513ZM4.4,18.489H3a.212.212,0,0,1-.212-.218,7.517,7.517,0,0,1,4.341-6.6A5.009,5.009,0,1,1,14.77,5.535a.214.214,0,0,1,0,.2.209.209,0,0,1-.164.109,6.181,6.181,0,0,0-1.378.309.206.206,0,0,1-.069.012.211.211,0,0,1-.178-.1,3.263,3.263,0,0,0-.507-.607A3.166,3.166,0,0,0,10.332,4.6h-.037a3.184,3.184,0,0,0-1.3,6.089.214.214,0,0,1,.12.233,6.283,6.283,0,0,0-.072,1.817.212.212,0,0,1-.159.231,5.686,5.686,0,0,0-4.27,5.312A.212.212,0,0,1,4.4,18.489ZM10.3,2.808A4.98,4.98,0,0,0,7.156,11.66l.016.013-.018.008a7.493,7.493,0,0,0-4.345,6.591A.187.187,0,0,0,3,18.464H4.4a.187.187,0,0,0,.187-.18,5.711,5.711,0,0,1,4.289-5.335.187.187,0,0,0,.14-.2,6.308,6.308,0,0,1,.073-1.824.188.188,0,0,0-.105-.206,3.163,3.163,0,0,1-.925-.629,3.209,3.209,0,0,1,2.239-5.507h.037a3.191,3.191,0,0,1,2.156.862A3.288,3.288,0,0,1,13,6.053a.191.191,0,0,0,.218.075,6.206,6.206,0,0,1,1.384-.31.185.185,0,0,0,.144-.1.189.189,0,0,0,0-.175,4.976,4.976,0,0,0-4.376-2.737ZM15.29,15.293H15.28a3.209,3.209,0,0,1-3.208-3.241,3.232,3.232,0,0,1,.91-2.206,3.2,3.2,0,0,1,2.266-.97h.028a3.244,3.244,0,0,1,2.253.918,3.209,3.209,0,0,1-2.239,5.5Zm-.009-.025h.009A3.183,3.183,0,0,0,15.276,8.9h-.028A3.172,3.172,0,0,0,13,9.864a3.207,3.207,0,0,0-.9,2.189,3.185,3.185,0,0,0,3.183,3.216Z" fill="#d3d3d3"/>
    </g>
  </g>
</svg>
