<svg xmlns="http://www.w3.org/2000/svg" xmlns:xlink="http://www.w3.org/1999/xlink" width="20" height="20" viewBox="0 0 20 20">
  <defs>
    <clipPath id="clip-path">
      <rect id="Rectangle_11" data-name="Rectangle 11" width="20" height="20" transform="translate(1078 44)" fill="#a23e26"/>
    </clipPath>
  </defs>
  <g id="contact" transform="translate(-1078 -44)" clip-path="url(#clip-path)">
    <g id="SVGRepo_iconCarrier" transform="translate(1078.014 44.15)">
      <path id="Path_4" data-name="Path 4" d="M14.863,22.331h0a2.1,2.1,0,0,1-.827-.169c-.714-.3-1.056-.988-1.738-2.351L9.952,15.118c-.037-.075-.075-.15-.1-.188-.037-.02-.113-.058-.186-.1L4.976,12.488c-1.364-.682-2.048-1.024-2.352-1.738a2.118,2.118,0,0,1,.129-1.907c.4-.667,1.121-.914,2.564-1.407L18.3,3a6.749,6.749,0,0,1,2.008-.508,1.794,1.794,0,0,1,.6.1A2.1,2.1,0,0,1,22.193,3.88c.244.692.012,1.372-.41,2.607L17.35,19.469c-.493,1.443-.74,2.167-1.407,2.564A2.113,2.113,0,0,1,14.863,22.331ZM4.65,9.929c.259.166.771.422,1.27.671l4.692,2.346a3,3,0,0,1,.534.311,2.111,2.111,0,0,1,.383.383,2.985,2.985,0,0,1,.31.532l2.347,4.694c.25.5.505,1.011.671,1.27.129-.279.314-.82.494-1.348L19.785,5.8c.155-.454.314-.92.372-1.176-.256.058-.722.217-1.176.372L6,9.434C5.471,9.614,4.929,9.8,4.65,9.929Z" transform="translate(-2.456 -2.494)" fill="#d3d3d3"/>
    </g>
  </g>
</svg>
