<svg xmlns="http://www.w3.org/2000/svg" xmlns:xlink="http://www.w3.org/1999/xlink" width="22" height="22" viewBox="0 0 22 22">
  <defs>
    <clipPath id="clip-path">
      <rect id="Rectangle_19" data-name="Rectangle 19" width="22" height="22" transform="translate(1691 43)" fill="#d3d3d3"/>
    </clipPath>
  </defs>
  <g id="Mask_Group_5" data-name="Mask Group 5" transform="translate(-1691 -43)" clip-path="url(#clip-path)">
    <path id="facebook" d="M1.256,5.913H20.744A1.3,1.3,0,0,1,22,7.168V26.657a1.3,1.3,0,0,1-1.256,1.256H1.256A1.3,1.3,0,0,1,0,26.657V7.168A1.3,1.3,0,0,1,1.256,5.913ZM15.623,18.266h3.039l.132-2.907H15.623V13.212c0-.826.165-1.288,1.222-1.288h1.85l.067-2.709a14.089,14.089,0,0,0-2.015-.132c-2.907,0-4.2,1.817-4.2,3.766v2.51H10.4v2.907h2.147v8.059h3.072Z" transform="translate(1691 37.087)" fill="#d3d3d3"/>
  </g>
</svg>
