<svg xmlns="http://www.w3.org/2000/svg" xmlns:xlink="http://www.w3.org/1999/xlink" width="22" height="22" viewBox="0 0 22 22">
  <defs>
    <clipPath id="clip-path">
      <rect id="Rectangle_18" data-name="Rectangle 18" width="22" height="22" transform="translate(1724 43)" fill="#fff"/>
    </clipPath>
  </defs>
  <g id="Mask_Group_3" data-name="Mask Group 3" transform="translate(-1724 -43)" clip-path="url(#clip-path)">
    <g id="SVGRepo_iconCarrier" transform="translate(1723 42)">
      <path id="Path_5" data-name="Path 5" d="M12,18a6,6,0,1,0-6-6A6,6,0,0,0,12,18Zm0-2a4,4,0,1,0-4-4A4,4,0,0,0,12,16Z" fill="#d2d2d2" fill-rule="evenodd"/>
      <path id="Path_6" data-name="Path 6" d="M18,5a1,1,0,1,0,1,1A1,1,0,0,0,18,5Z" fill="#d3d3d3"/>
      <path id="Path_7" data-name="Path 7" d="M1.654,4.276C1,5.56,1,7.24,1,10.6v2.8c0,3.36,0,5.041.654,6.324a6,6,0,0,0,2.622,2.622C5.56,23,7.24,23,10.6,23h2.8c3.36,0,5.041,0,6.324-.654a6,6,0,0,0,2.622-2.622C23,18.441,23,16.76,23,13.4V10.6c0-3.36,0-5.04-.654-6.324a6,6,0,0,0-2.622-2.622C18.441,1,16.76,1,13.4,1H10.6c-3.36,0-5.04,0-6.324.654A6,6,0,0,0,1.654,4.276ZM13.4,3H10.6c-1.713,0-2.878,0-3.778.075a4.317,4.317,0,0,0-1.638.361A4,4,0,0,0,3.436,5.184a4.317,4.317,0,0,0-.361,1.638C3,7.722,3,8.887,3,10.6v2.8c0,1.713,0,2.878.075,3.778a4.317,4.317,0,0,0,.361,1.638,4,4,0,0,0,1.748,1.748,4.315,4.315,0,0,0,1.638.361C7.722,21,8.887,21,10.6,21h2.8c1.713,0,2.878,0,3.778-.075a4.316,4.316,0,0,0,1.638-.361,4,4,0,0,0,1.748-1.748,4.316,4.316,0,0,0,.361-1.638C21,16.278,21,15.113,21,13.4V10.6c0-1.713,0-2.878-.075-3.778a4.315,4.315,0,0,0-.361-1.638,4,4,0,0,0-1.748-1.748,4.317,4.317,0,0,0-1.638-.361C16.278,3,15.113,3,13.4,3Z" fill="#d3d3d3" fill-rule="evenodd"/>
    </g>
  </g>
</svg>
