<svg xmlns="http://www.w3.org/2000/svg" xmlns:xlink="http://www.w3.org/1999/xlink" width="32" height="32" viewBox="0 0 32 32">
  <defs>
    <clipPath id="clip-path">
      <rect id="Rectangle_120" data-name="Rectangle 120" width="32" height="32" fill="#fff"/>
    </clipPath>
  </defs>
  <g id="Mask_Group_37" data-name="Mask Group 37" clip-path="url(#clip-path)">
    <path id="phone-svgrepo-com_1_" data-name="phone-svgrepo-com (1)" d="M24.78,24.659l.892.848h0Zm.747-.787-.892-.848h0Zm3.966-.55-.614,1.067h0Zm3.135,1.8-.614,1.067Zm.883,5.655.892.848h0ZM31.18,33.236l-.892-.848ZM29.006,34.4l.121,1.225ZM12.825,27.035l.892-.848ZM6.157,11.365A1.231,1.231,0,1,0,3.7,11.5Zm8.925,3.084.892.848Zm.471-.5.892.848Zm.257-4.611,1-.711ZM13.74,6.416l-1,.711h0Zm-6-1.341a1.231,1.231,0,0,0,1.785,1.7Zm10.413,16.35.892-.848ZM17.5,32.511a1.231,1.231,0,1,0,1.31-2.084Zm7.3.4a1.231,1.231,0,1,0-.5,2.409Zm.872-7.408.747-.787-1.785-1.7-.747.787Zm3.207-1.118,3.135,1.8,1.228-2.133-3.135-1.8Zm3.74,5.546-2.331,2.454,1.785,1.7L34.4,31.63Zm-18.9-3.747c-6.361-6.7-7.427-12.345-7.56-14.823L3.7,11.5c.163,3.035,1.451,9.245,8.234,16.386ZM15.974,15.3l.471-.5-1.785-1.7-.471.5Zm.84-6.665L14.745,5.705l-2.01,1.421L14.8,10.053Zm-1.733,5.817c-.892-.848-.893-.846-.895-.845l0,0,0,.005-.01.011-.022.025c-.015.018-.032.038-.05.061-.036.046-.077.1-.12.168a2.612,2.612,0,0,0-.258.532,3.7,3.7,0,0,0-.139,1.792c.214,1.464,1.174,3.433,3.68,6.071l1.785-1.7c-2.343-2.467-2.92-3.986-3.029-4.733a1.289,1.289,0,0,1,.022-.61c.012-.034.02-.043.012-.031s-.011.017-.023.032l-.023.027-.015.016-.008.009,0,0,0,0S15.974,15.3,15.082,14.449Zm2.18,7.823c2.5,2.631,4.386,3.665,5.826,3.9a3.364,3.364,0,0,0,1.79-.154,2.5,2.5,0,0,0,.528-.283c.065-.047.12-.091.164-.129l.058-.054.023-.023.011-.011,0,0,0,0s0,0-.89-.85-.891-.849-.89-.85l0,0,0,0,.009-.009.016-.015.027-.025a.414.414,0,0,1,.035-.028c.015-.011.014-.007-.007,0a.95.95,0,0,1-.492.015c-.66-.107-2.086-.69-4.436-3.165ZM14.745,5.705a4.517,4.517,0,0,0-7-.631l1.785,1.7a2.057,2.057,0,0,1,3.209.357ZM30.288,32.388a2.3,2.3,0,0,1-1.4.786l.242,2.45a4.737,4.737,0,0,0,2.946-1.541ZM16.445,14.8a4.9,4.9,0,0,0,.37-6.169L14.8,10.053a2.441,2.441,0,0,1-.145,3.053ZM32.014,26.193a2.466,2.466,0,0,1,.605,3.741l1.785,1.7a4.925,4.925,0,0,0-1.162-7.57ZM26.419,24.72a1.976,1.976,0,0,1,2.459-.331l1.228-2.133a4.437,4.437,0,0,0-5.472.769Zm-7.61,5.707a26.52,26.52,0,0,1-5.092-4.24l-1.785,1.7A28.969,28.969,0,0,0,17.5,32.511Zm10.076,2.748a13.568,13.568,0,0,1-4.085-.26l-.5,2.409a16.029,16.029,0,0,0,4.832.3Z" transform="translate(-3.694 -3.691)" fill="#f1f1f1"/>
  </g>
</svg>
