<svg xmlns="http://www.w3.org/2000/svg" xmlns:xlink="http://www.w3.org/1999/xlink" width="80" height="80" viewBox="0 0 80 80">
  <defs>
    <clipPath id="clip-path">
      <rect id="Rectangle_159" data-name="Rectangle 159" width="80" height="80" rx="10" transform="translate(1202 3452)" fill="#f1f1f1"/>
    </clipPath>
  </defs>
  <g id="Mask_Group_52" data-name="Mask Group 52" transform="translate(-1202 -3452)" clip-path="url(#clip-path)">
    <g id="SVGRepo_iconCarrier" transform="translate(1197.349 3447.349)">
      <path id="Path_70" data-name="Path 70" d="M49.612,84.651H39.69a2.791,2.791,0,0,1,0-5.581h9.922a2.791,2.791,0,1,1,0,5.581Z" fill="#f1f1f1"/>
      <path id="Path_70-2" data-name="Path 70" d="M53.762,84.651H40.6c-2.044,0-3.7-1.249-3.7-2.791s1.657-2.791,3.7-2.791H53.762c2.044,0,3.7,1.249,3.7,2.791S55.807,84.651,53.762,84.651Z" transform="translate(-2.53 -9)" fill="#f1f1f1"/>
      <path id="Path_71" data-name="Path 71" d="M51.509,66.047H37.793a7.1,7.1,0,0,1-7.1-7.1,2.962,2.962,0,0,0-.928-2.148l-4.108-3.866A30.461,30.461,0,0,1,15.814,30.9c0-14.621,12.936-26.252,28.837-26.252A31.193,31.193,0,0,1,56.9,7.114a2.791,2.791,0,1,1-2.18,5.138,25.642,25.642,0,0,0-10.073-2.019C31.828,10.233,21.4,19.36,21.4,30.579a25.075,25.075,0,0,0,8.1,18.3l4.1,3.859a8.565,8.565,0,0,1,2.684,6.212,1.516,1.516,0,0,0,1.514,1.514H51.509a1.516,1.516,0,0,0,1.514-1.514,8.564,8.564,0,0,1,2.684-6.212l4.108-3.866a24.92,24.92,0,0,0,8.091-17.993,18.268,18.268,0,0,0-1.491-7.445,2.791,2.791,0,0,1,5.122-2.217,23.437,23.437,0,0,1,1.951,9.362,30.62,30.62,0,0,1-9.84,22.35L59.533,56.8a2.961,2.961,0,0,0-.928,2.148A7.1,7.1,0,0,1,51.509,66.047Z" fill="#f1f1f1"/>
    </g>
  </g>
</svg>
