<svg xmlns="http://www.w3.org/2000/svg" xmlns:xlink="http://www.w3.org/1999/xlink" width="80" height="80" viewBox="0 0 80 80">
  <defs>
    <clipPath id="clip-path">
      <rect id="Rectangle_158" data-name="Rectangle 158" width="80" height="80" rx="10" transform="translate(50 3452)" fill="#dd480a"/>
    </clipPath>
  </defs>
  <g id="Mask_Group_51" data-name="Mask Group 51" transform="translate(-50 -3452)" clip-path="url(#clip-path)">
    <g id="SVGRepo_iconCarrier" transform="translate(50 3452)">
      <g id="Group_96" data-name="Group 96">
        <path id="Path_69" data-name="Path 69" d="M67.583,35.923a10.175,10.175,0,0,0-4.268,1V28.848A12.18,12.18,0,0,0,51.15,16.68H43.081a10.134,10.134,0,0,0,1-4.263,12.418,12.418,0,0,0-24.836,0,10.17,10.17,0,0,0,.994,4.263H12.168A12.182,12.182,0,0,0,0,28.848l.007,3.723H0l.012,5.278a10.633,10.633,0,0,0,1.975,6.572,6.809,6.809,0,0,0,5.452,2.839,7.364,7.364,0,0,0,5.188-2.3l.142-.066.237-.335A3.207,3.207,0,0,1,15.2,43.7a4.635,4.635,0,0,1,0,9.27,3.181,3.181,0,0,1-2.187-.859l-.237-.335-.142-.066a7.364,7.364,0,0,0-5.188-2.3,6.817,6.817,0,0,0-5.452,2.839A10.639,10.639,0,0,0,.012,58.828L0,64.106H.007L0,67.822A12.184,12.184,0,0,0,12.168,80h8.525v-.01l.476,0a10.624,10.624,0,0,0,6.572-1.975,6.809,6.809,0,0,0,2.839-5.452,7.371,7.371,0,0,0-2.3-5.188l-.068-.142-.332-.237a3.182,3.182,0,0,1-.862-2.19,4.635,4.635,0,0,1,9.27,0,3.2,3.2,0,0,1-.859,2.19l-.332.237-.068.142a7.364,7.364,0,0,0-2.3,5.188,6.8,6.8,0,0,0,2.839,5.452,10.624,10.624,0,0,0,6.572,1.975L44.8,80v0H51.15A12.18,12.18,0,0,0,63.315,67.832V59.763a10.21,10.21,0,0,0,4.268,1,12.418,12.418,0,0,0,0-24.836Zm0,19.761c-2.974,0-5.855-3.447-5.855-3.447a2.2,2.2,0,0,0-1.445-.752,1.6,1.6,0,0,0-1.24.752,4.77,4.77,0,0,0-.8,3.018V67.832a7.092,7.092,0,0,1-7.092,7.092H47.429l-5.281-.012a5.479,5.479,0,0,1-3.467-.918,1.847,1.847,0,0,1-.869-1.433,2.5,2.5,0,0,1,.869-1.655,8.224,8.224,0,0,0,2.69-6.1,9.712,9.712,0,0,0-19.424,0,8.224,8.224,0,0,0,2.69,6.1,2.506,2.506,0,0,1,.864,1.655,1.847,1.847,0,0,1-.864,1.433,5.491,5.491,0,0,1-3.469.918l-5.281.012h-3.72a7.091,7.091,0,0,1-7.09-7.092L5.093,60.3H5.085l0-1.472a5.5,5.5,0,0,1,.918-3.469,1.84,1.84,0,0,1,1.431-.864,2.5,2.5,0,0,1,1.658.864,8.222,8.222,0,0,0,6.1,2.693,9.712,9.712,0,0,0,0-19.424,8.224,8.224,0,0,0-6.1,2.69,2.506,2.506,0,0,1-1.658.864,1.84,1.84,0,0,1-1.431-.864,5.5,5.5,0,0,1-.918-3.469v-.181h0l-.015-8.821a7.089,7.089,0,0,1,7.09-7.09H24.746a4.77,4.77,0,0,0,3.018-.8c1-.772,1-1.645,0-2.686,0,0-3.447-2.881-3.447-5.855a7.343,7.343,0,0,1,14.685,0c0,2.974-3.445,5.855-3.445,5.855-1.006,1.04-1.006,1.914,0,2.686a4.753,4.753,0,0,0,3.013.8H51.15a7.09,7.09,0,0,1,7.092,7.09V41.428a4.757,4.757,0,0,0,.8,3.015,1.593,1.593,0,0,0,1.24.752,2.191,2.191,0,0,0,1.445-.752S64.61,41,67.583,41a7.343,7.343,0,0,1,0,14.685Z" fill="#dd480a"/>
      </g>
    </g>
  </g>
</svg>
