<svg xmlns="http://www.w3.org/2000/svg" xmlns:xlink="http://www.w3.org/1999/xlink" width="80" height="80" viewBox="0 0 80 80">
  <defs>
    <clipPath id="clip-path">
      <rect id="Rectangle_157" data-name="Rectangle 157" width="80" height="80" rx="10" transform="translate(50 2993)" fill="#f1f1f1"/>
    </clipPath>
  </defs>
  <g id="Mask_Group_50" data-name="Mask Group 50" transform="translate(-50 -2993)" clip-path="url(#clip-path)">
    <g id="SVGRepo_iconCarrier" transform="translate(28.066 2971.066)">
      <path id="Path_67" data-name="Path 67" d="M61.934,58.579A3.87,3.87,0,0,1,60.5,58.3L24.368,43.851a3.871,3.871,0,0,1,0-7.188L60.5,22.212a3.871,3.871,0,0,1,2.875,0L99.5,36.663a3.871,3.871,0,0,1,0,7.188L63.371,58.3A3.871,3.871,0,0,1,61.934,58.579ZM36.228,40.257,61.934,50.539,87.639,40.257,61.934,29.975Z" fill="#f1f1f1"/>
      <path id="Path_68" data-name="Path 68" d="M27.243,80.016A3.871,3.871,0,0,0,24.368,87.2Zm34.69,18.045L60.5,101.656a3.871,3.871,0,0,0,2.875,0ZM99.5,87.2a3.871,3.871,0,0,0-2.875-7.188ZM27.243,58.34a3.871,3.871,0,0,0-2.875,7.188Zm34.69,18.045L60.5,79.979a3.871,3.871,0,0,0,2.875,0ZM99.5,65.528a3.871,3.871,0,1,0-2.875-7.188ZM24.368,87.2,60.5,101.656l2.875-7.188L27.243,80.016Zm39,14.451L99.5,87.2l-2.875-7.188L60.5,94.468Zm-39-36.128L60.5,79.979l2.875-7.188L27.243,58.34Zm39,14.451L99.5,65.528,96.624,58.34,60.5,72.791Z" fill="#f1f1f1"/>
    </g>
  </g>
</svg>
