<svg xmlns="http://www.w3.org/2000/svg" xmlns:xlink="http://www.w3.org/1999/xlink" width="80" height="80" viewBox="0 0 80 80">
  <defs>
    <clipPath id="clip-path">
      <rect id="Rectangle_160" data-name="Rectangle 160" width="80" height="80" rx="10" transform="translate(1586 3452)" fill="#dd480a"/>
    </clipPath>
  </defs>
  <g id="Mask_Group_53" data-name="Mask Group 53" transform="translate(-1586 -3452)" clip-path="url(#clip-path)">
    <g id="SVGRepo_iconCarrier" transform="translate(1581.349 3447.349)">
      <path id="Path_72" data-name="Path 72" d="M63.628,62.326H59.535a2.791,2.791,0,0,1-2.791-2.791V48c0-11.545-3.9-15.442-15.442-15.442H29.767a2.791,2.791,0,0,1-2.791-2.791V25.674C26.977,11.135,33.461,4.651,48,4.651H63.628c14.539,0,21.023,6.484,21.023,21.023V41.3C84.651,55.842,78.167,62.326,63.628,62.326Zm-1.3-5.581h1.3c11.545,0,15.442-3.9,15.442-15.442V25.674c0-11.545-3.9-15.442-15.442-15.442H48c-11.545,0-15.442,3.9-15.442,15.442v1.3H41.3c14.539,0,21.023,6.484,21.023,21.023Z" fill="#dd480a"/>
      <path id="Path_73" data-name="Path 73" d="M41.3,84.651H25.674c-14.539,0-21.023-6.484-21.023-21.023V48c0-14.539,6.484-21.023,21.023-21.023H41.3c14.539,0,21.023,6.484,21.023,21.023V63.628C62.326,78.167,55.842,84.651,41.3,84.651ZM25.674,32.558c-11.545,0-15.442,3.9-15.442,15.442V63.628c0,11.545,3.9,15.442,15.442,15.442H41.3c11.545,0,15.442-3.9,15.442-15.442V48c0-11.545-3.9-15.442-15.442-15.442Z" fill="#dd480a"/>
      <path id="Path_74" data-name="Path 74" d="M29.879,65.86a2.791,2.791,0,0,1-1.973-.817L20.65,57.787A2.791,2.791,0,1,1,24.6,53.841l5.28,5.28,12.5-12.533a2.791,2.791,0,1,1,3.952,3.942L31.855,65.041A2.8,2.8,0,0,1,29.879,65.86Z" fill="#dd480a"/>
    </g>
  </g>
</svg>
